<svg width="448" height="448" viewBox="0 0 448 448" fill="none" xmlns="http://www.w3.org/2000/svg">
<path d="M186.5 261C186.5 280.3 172.5 286.4 155.3 286.4H110.2V233.5H156.2C174.8 233.6 186.5 241.3 186.5 261ZM178.8 178.7C178.8 161 165.1 156.8 149.9 156.8H110.3V201.6H153C168.1 201.6 178.8 195 178.8 178.7ZM311.1 201.9C292.8 201.9 280.6 213.3 279.4 231.6H341.6C339.9 213.1 330.3 201.9 311.1 201.9ZM448 48V400C448 426.5 426.5 448 400 448H48C21.5 448 0 426.5 0 400V48C0 21.5 21.5 0 48 0H400C426.5 0 448 21.5 448 48ZM271.7 153H349.5V134.1H271.7V153ZM228.7 263.3C228.7 239.2 217.3 218.4 193.7 211.7C210.9 203.5 219.9 194 219.9 174.7C219.9 136.5 191.4 127.2 158.5 127.2H68V319.2H161.1C196 319 228.7 302.3 228.7 263.3ZM380 248.5C380 207.4 355.9 173.1 312.4 173.1C270 173.1 241.3 204.9 241.3 246.7C241.3 290 268.6 319.7 312.4 319.7C345.6 319.7 367.1 304.8 377.5 272.9H343.8C340.1 284.8 325.2 291 313.6 291C291.2 291 279.5 277.9 279.5 255.7H379.7C379.8 253.4 380 250.9 380 248.5Z" fill="black"/>
</svg>
